<svg xmlns="http://www.w3.org/2000/svg" xmlns:xlink="http://www.w3.org/1999/xlink" fill="none" version="1.1" width="64" height="64" viewBox="0 0 64 64"><defs><clipPath id="master_svg0_28_08612"><rect x="0" y="0" width="64" height="64" rx="16"/></clipPath></defs><g clip-path="url(#master_svg0_28_08612)"><path d="M16.011564759375,24.651045500000002C14.199107859375001,26.048609499999998,12.604812959375,27.6949075,11.290276049375,29.5567475C11.202752649375,29.6807115,10.984475776375,29.5737765,11.051337435375,29.4375555C12.365951259375,26.7591675,14.005819559375,24.3629835,15.886684859375,22.313341100000002L15.886684859375,14.0910532C15.886684859375,13.28568906,16.539561259375,12.6328125,17.344925359375,12.6328125L46.644012359375,12.6328125C47.449375359375,12.6328125,48.102253359375,13.28568906,48.102253359375,14.0910536L48.102253359375,24.7461315C43.604339359375,21.2891407,37.941707359375,19.4149718,31.994632359375,19.4149718C26.104784359375,19.4149718,20.491793659375,21.2537947,16.011564759375,24.651045500000002ZM31.994556359375,36.8882465C35.140150359375,36.8882465,37.690157359375,34.3323655,37.690157359375,31.1795235C37.690157359375,30.5937725,37.600223359375,30.0115585,37.423504359375,29.4532315C36.963556359375005,30.4290525,35.982988359375,31.0517195,34.906236359375,31.0517195C33.368648359375,31.0517195,32.122188359375,29.8023895,32.122188359375,28.2612605C32.122188359375,27.1816535,32.743179359375,26.199264499999998,33.717109359375,25.738142500000002C33.160028359375005,25.5609735,32.579012359375,25.4707995,31.994556359375,25.4707995C28.848966359375,25.4707995,26.298958359375,28.026681500000002,26.298958359375,31.1795235C26.298958359375,34.3323655,28.848966359375,36.8882465,31.994556359375,36.8882465ZM47.152950359375,40.7200105C49.430202359375,38.5980795,51.405811359375,36.0023425,52.946987359375,33.029174499999996C53.017212359375,32.893690500000005,52.805626359375,32.7626725,52.716545359375,32.886579499999996C51.366592359375,34.7642615,49.730171359375,36.4189315,47.871692359375,37.8158765C47.873394359375,37.8053205,47.875091359375,37.7947615,47.876773359375,37.7842025C43.466114359375,41.092451499999996,37.971618359375,42.9006615,32.199829359375,42.9434035C32.191536359375,42.9434665,32.183244359374996,42.9435235,32.174951359375,42.9435765C32.114826359375,42.943948500000005,32.054660359375,42.9441415,31.994453359375,42.9441415C26.150606359375,42.9441185,20.577616659375,41.1334405,16.112119659375,37.7839225C17.329820159375,45.4193075,23.367437359375,51.7093845,31.457872359375,54.2405735C31.808345359375,54.3502275,32.180591359375,54.3502275,32.531065359375,54.2405775C39.557903359375004,52.0421445,45.036186359375,47.0081745,47.152950359375,40.7200105Z" fill-rule="evenodd" fill="#000000" fill-opacity="1"/></g></svg>