<svg xmlns="http://www.w3.org/2000/svg" xmlns:xlink="http://www.w3.org/1999/xlink" fill="none" version="1.1" width="16" height="16" viewBox="0 0 16 16"><defs><clipPath id="master_svg0_6_23920"><rect x="0" y="0" width="16" height="16" rx="0"/></clipPath></defs><g clip-path="url(#master_svg0_6_23920)"><path d="M7.997250093896485,2.4749999046325684C8.273400293896485,2.4749999046325684,8.497249593896484,2.6988499146325684,8.497249593896484,2.9749999046325684L8.497249593896484,8.795542704632568L9.346340193896484,7.946420704632568C9.541659393896484,7.7514181046325685,9.858038893896484,7.751551604632568,10.053192093896484,7.946718704632568C10.248346293896486,8.141886204632568,10.248456993896484,8.458265804632568,10.053440093896484,8.653570604632568L8.353440293896483,10.353570504632568C8.158190693896485,10.548820004632569,7.841590393896484,10.548820004632569,7.646340393896485,10.353570504632568L5.946340593896484,8.653570604632568C5.752546293896485,8.458060704632569,5.753241493896484,8.142679704632569,5.9478954938964845,7.948025704632569C6.142549493896484,7.753371704632569,6.457930593896484,7.752676504632569,6.653440493896484,7.946470704632568L7.497249593896484,8.790279904632568L7.497249593896484,2.9749999046325684C7.497249593896484,2.6988499146325684,7.721099393896484,2.4749999046325684,7.997250093896485,2.4749999046325684ZM13.599843493896485,12.100024704632569L13.599843493896485,8.000024304632568C13.599843493896485,7.723874104632569,13.375992493896485,7.500024304632569,13.099843493896485,7.500024304632569C12.823693493896485,7.500024304632569,12.599843493896485,7.723874604632568,12.599843493896485,8.000024304632568L12.599843493896485,12.100024704632569C12.600081493896484,12.166818104632569,12.586780493896484,12.232965904632568,12.560743493896485,12.294475104632568C12.535655493896485,12.353990104632569,12.499190493896485,12.408034804632567,12.453392493896484,12.453574704632569C12.359847993896484,12.547675904632568,12.232527693896484,12.600415904632568,12.099842993896484,12.60002490463257L3.899842493896484,12.60002490463257C3.833049993896484,12.600262904632569,3.766901993896484,12.586961904632568,3.7053925938964847,12.560924904632568C3.6458782938964847,12.535836904632568,3.5918342938964845,12.499370904632569,3.5462924938964844,12.453574704632569C3.4522094938964845,12.360018204632569,3.399473193896484,12.232705604632569,3.3998422938964845,12.100024704632569L3.3998422938964845,8.002374204632568C3.3998422938964845,7.726223904632568,3.1759924838964846,7.502374204632568,2.8998422638964843,7.502374204632568C2.623692513896484,7.502374204632568,2.399842262268084,7.7262244046325685,2.399842262268084,8.002374204632568L2.399842262268084,12.100024704632569C2.399326324466484,12.300674004632569,2.4395027158964844,12.499342904632568,2.5179424238964843,12.684023904632568C2.5930128138964843,12.862284904632569,2.7021336538964844,13.024190904632569,2.8391923938964845,13.160674904632568C2.9756808238964845,13.297724904632569,3.137585643896484,13.406845904632569,3.315842623896484,13.481924904632569C3.5019423938964844,13.560674904632569,3.696642393896484,13.60002490463257,3.899842493896484,13.60002490463257L12.099842993896484,13.60002490463257C12.300493193896484,13.600556904632569,12.499166493896483,13.560380904632568,12.683842493896485,13.481924904632569C12.862101493896484,13.406848904632568,13.024006493896485,13.297727904632568,13.160492493896484,13.160674904632568C13.297546493896485,13.024188904632569,13.406666493896484,12.862282904632568,13.481742493896485,12.684023904632568C13.560493493896484,12.497923904632568,13.599843493896485,12.303274604632568,13.599843493896485,12.100024704632569Z" fill-rule="evenodd" fill="#FFFFFF" fill-opacity="0.800000011920929"/></g></svg>